<svg xmlns="http://www.w3.org/2000/svg" xml:space="preserve" width="486.491" height="951.834" viewBox="0 0 128.717 251.84"><path d="M118.894 60.385c4.039-.791 7.731-4.541 9.291-9.437.793-2.486.991-7.575.415-10.647-1.768-9.42-10.23-14.163-16.98-9.518-7.603 5.231-8.43 19.351-1.545 26.381 2.575 2.629 5.81 3.81 8.819 3.221m25.146 7.606c5.986-1.385 10.635-7.982 11.03-15.651.301-5.86-1.815-10.516-5.778-12.71-1.303-.722-1.623-.784-4.06-.784-2.384 0-2.804.077-4.234.771-6.036 2.933-9.967 12.626-8.104 19.988 1.55 6.13 6.102 9.553 11.147 8.386m-58.791.879c5.688-1.406 9.906-6.302 12.061-11.552 2.155-5.263 2.236-11.143 1.462-16.702-1.488-7.457-6.33-14.785-13.742-17.36-2.989-.891-6.252-.865-9.285-.209-7.474 2.243-12.497 9.536-13.775 16.995-1.358 8.19.325 17.336 6.138 23.538 3.323 3.601 8.093 6.192 13.108 5.792 1.354-.045 2.716-.168 4.033-.502m80.684 10.748c5.84-1.907 10.363-9.96 9.364-16.676-.42-2.821-1.206-4.708-2.533-6.073-1.777-1.828-2.549-2.14-5.308-2.144-3.096-.005-4.782.732-7.114 3.11-4.826 4.923-6.211 14.723-2.726 19.293 1.38 1.81 3 2.659 5.278 2.766 1.162.055 2.358-.053 3.04-.276m14.877 17.159c2.523-.703 4.17-1.887 6.237-4.48 2.97-3.728 3.956-8.458 2.595-12.44-.667-1.95-2.923-4.111-4.953-4.744-3.259-1.016-6.434.014-9.22 2.992-2.826 3.022-4.038 6.513-3.862 11.126.114 2.977.473 4.056 1.926 5.783 1.478 1.756 4.593 2.511 7.277 1.763m-56.615 177.39c13.7-1.529 24.224-9.502 29.89-22.647 3.567-8.272 4.778-15.36 5.688-33.287 1.075-21.199 1.404-24.033 3.978-34.273 1.15-4.577 2.538-8.893 5.84-18.168 2.715-7.622 6.13-18.22 7.282-22.599 1.275-4.841 1.676-8.44 1.66-14.918-.015-6.775-.383-9.451-1.949-14.183-2.981-9.01-8.779-17.246-17.067-24.245-9.34-7.888-23.238-14.095-37.835-16.899-4.867-.934-14.042-1.188-19.05-.526-3.627.479-9.543 1.888-12.368 2.946-2.84 1.065-7.232 3.392-9.249 4.903-8.178 6.126-11.626 13.965-11.63 26.44-.003 4.96.309 6.96 1.76 11.296 2.007 5.997 5.48 11.774 11.898 19.793 7.432 9.286 10.519 14.398 13.42 22.225 3.555 9.592 4.062 20.91 1.404 31.35-1.248 4.906-2.34 7.703-6.356 16.282-3.52 7.52-5.59 12.668-6.7 16.662-1.495 5.384-1.728 7.171-1.742 13.361-.011 5.255.044 5.95.725 9.112 2.712 12.596 10.703 21.728 22.42 25.622 5.175 1.72 12.17 2.402 17.981 1.753" style="fill:#000" transform="translate(-61.528 -22.57)"/></svg>