<svg xmlns="http://www.w3.org/2000/svg" xml:space="preserve" width="675.877" height="873.364"
  viewBox="0 0 178.826 231.078">
  <path
    d="M128.602 261.865c12.29-1.544 23.545-6.302 33.338-14.094 3.11-2.475 8.558-7.902 10.941-10.9 9.283-11.678 15.262-27.325 17.754-46.467 1.313-10.086 1.195-25.289-.306-39.258-.512-4.758-.7-7.925-.707-11.906l-.01-5.424 3.767-18.786c6.994-34.87 7.22-36.932 4.655-42.355-1.429-3.02-4.746-5.717-8.146-6.622-2.857-.76-6.673-.201-9.336 1.369-3.388 1.997-6.155 6.231-7.196 11.009l-1.198 5.51a475 475 0 0 1-1.599 7.012c-.516 2.183-2.306 10.622-3.977 18.754-1.671 8.131-3.222 15.064-3.446 15.406-.982 1.499-3.013 1.758-4.516.576l-.728-.573.169-3.984c.092-2.192.581-9.522 1.087-16.288 2.706-36.242 3.276-48.845 2.38-52.648-1.883-7.99-9.56-13.025-16.56-10.862-4.62 1.428-8.018 4.893-9.758 9.953-.898 2.61-1.039 5.327-1.85 35.83-.577 21.632-1.038 32.01-1.46 32.826-.506.98-1.651 1.57-3.046 1.57-.896 0-1.264-.166-1.998-.9-.512-.512-.9-1.168-.9-1.521-.001-1.04-1.289-41.889-1.45-45.998-.083-2.11-.325-8.48-.537-14.155-.468-12.47-.58-14.005-1.212-16.488-.95-3.739-3.306-7.066-6.439-9.095-4.361-2.825-10.225-2.893-14.501-.168-3.049 1.942-5.463 5.748-6.186 9.75-.45 2.498-.417 3.837.437 17.588.28 4.511.871 14.274 1.312 21.696.442 7.421 1.04 17.183 1.328 21.693s.602 10.011.698 12.225l.173 4.026-.862.806c-.659.615-1.108.805-1.906.805-1.358 0-2.454-.584-2.832-1.509-.167-.407-1.077-5.621-2.024-11.588-1.623-10.23-4.605-27.119-6.61-37.438a485 485 0 0 1-1.45-7.806c-.94-5.432-2.1-8.297-4.442-10.974-3.069-3.508-8.262-5.466-12.64-4.767-5.565.89-9.548 5.122-10.623 11.288-.664 3.812-1.078 1.129 7.331 47.448 2.312 12.733 4.858 26.545 5.657 30.692 2.743 14.234 2.859 14.921 2.734 16.23-.261 2.743-2.956 3.865-5.4 2.248-.888-.589-1.882-2.07-6.035-8.996-11.388-18.993-14.768-23.207-20.875-26.03-2.808-1.297-6.058-1.88-8.512-1.526-3.885.56-7.001 2.671-8.692 5.89-1.73 3.292-2.118 6.516-1.229 10.224.97 4.044 19.248 49.612 26.764 66.725 8.625 19.635 16.277 31.497 26.777 41.505 9.7 9.246 20.522 15.25 31.593 17.53 6.451 1.329 16.006 1.732 22.3.942"
    style="fill:#000" transform="translate(-20.708 -31.19)" />
</svg>